<svg xmlns="http://www.w3.org/2000/svg" version="1.1" xmlns:xlink="http://www.w3.org/1999/xlink" xmlns:svgjs="http://svgjs.dev/svgjs" width="1440" height="560" preserveAspectRatio="none" viewBox="0 0 1440 560"><g mask="url(&quot;#SvgjsMask1010&quot;)" fill="none"><rect width="1440" height="560" x="0" y="0" fill="#0e2a47"></rect><path d="M-68.25 371.25L-68.25 371.25" stroke="#132e65" stroke-width="1.5"></path><path d="M-68.25 371.25L-103.27 495.81" stroke="#132e65" stroke-width="1.5"></path><path d="M-68.25 371.25L87.16 358.1" stroke="#132e65" stroke-width="1.5"></path><path d="M-68.25 371.25L87.9 496.54" stroke="#132e65" stroke-width="1.5"></path><path d="M-68.25 371.25L-54.59 667.44" stroke="#132e65" stroke-width="1.5"></path><path d="M-68.25 371.25L221.48 495.4" stroke="#132e65" stroke-width="1.5"></path><path d="M-68.25 371.25L110.54 652.46" stroke="#132e65" stroke-width="1.5"></path><path d="M-103.27 495.81L-103.27 495.81" stroke="#132e65" stroke-width="1.5"></path><path d="M-103.27 495.81L-54.59 667.44" stroke="#132e65" stroke-width="1.5"></path><path d="M-103.27 495.81L87.9 496.54" stroke="#132e65" stroke-width="1.5"></path><path d="M-103.27 495.81L87.16 358.1" stroke="#132e65" stroke-width="1.5"></path><path d="M-103.27 495.81L110.54 652.46" stroke="#132e65" stroke-width="1.5"></path><path d="M-103.27 495.81L221.48 495.4" stroke="#132e65" stroke-width="1.5"></path><path d="M-54.59 667.44L-54.59 667.44" stroke="#132e65" stroke-width="1.5"></path><path d="M-54.59 667.44L110.54 652.46" stroke="#132e65" stroke-width="1.5"></path><path d="M-54.59 667.44L87.9 496.54" stroke="#132e65" stroke-width="1.5"></path><path d="M-54.59 667.44L240.87 656.34" stroke="#132e65" stroke-width="1.5"></path><path d="M87.16 358.1L87.16 358.1" stroke="#132e65" stroke-width="1.5"></path><path d="M87.16 358.1L87.9 496.54" stroke="#132e65" stroke-width="1.5"></path><path d="M87.16 358.1L221.48 495.4" stroke="#132e65" stroke-width="1.5"></path><path d="M87.16 358.1L110.54 652.46" stroke="#132e65" stroke-width="1.5"></path><path d="M87.9 496.54L87.9 496.54" stroke="#132e65" stroke-width="1.5"></path><path d="M87.9 496.54L221.48 495.4" stroke="#132e65" stroke-width="1.5"></path><path d="M110.54 652.46L110.54 652.46" stroke="#132e65" stroke-width="1.5"></path><path d="M110.54 652.46L240.87 656.34" stroke="#132e65" stroke-width="1.5"></path><path d="M110.54 652.46L87.9 496.54" stroke="#132e65" stroke-width="1.5"></path><path d="M221.48 495.4L221.48 495.4" stroke="#132e65" stroke-width="1.5"></path><path d="M221.48 495.4L366.98 505.96" stroke="#132e65" stroke-width="1.5"></path><path d="M221.48 495.4L240.87 656.34" stroke="#132e65" stroke-width="1.5"></path><path d="M221.48 495.4L110.54 652.46" stroke="#132e65" stroke-width="1.5"></path><path d="M240.87 656.34L240.87 656.34" stroke="#132e65" stroke-width="1.5"></path><path d="M240.87 656.34L345.72 651.21" stroke="#132e65" stroke-width="1.5"></path><path d="M240.87 656.34L366.98 505.96" stroke="#132e65" stroke-width="1.5"></path><path d="M403.74 359.11L403.74 359.11" stroke="#132e65" stroke-width="1.5"></path><path d="M403.74 359.11L498.63 371.28" stroke="#132e65" stroke-width="1.5"></path><path d="M403.74 359.11L366.98 505.96" stroke="#132e65" stroke-width="1.5"></path><path d="M403.74 359.11L514.82 533.66" stroke="#132e65" stroke-width="1.5"></path><path d="M403.74 359.11L221.48 495.4" stroke="#132e65" stroke-width="1.5"></path><path d="M403.74 359.11L668.07 378.55" stroke="#132e65" stroke-width="1.5"></path><path d="M403.74 359.11L345.72 651.21" stroke="#132e65" stroke-width="1.5"></path><path d="M366.98 505.96L366.98 505.96" stroke="#132e65" stroke-width="1.5"></path><path d="M366.98 505.96L345.72 651.21" stroke="#132e65" stroke-width="1.5"></path><path d="M366.98 505.96L514.82 533.66" stroke="#132e65" stroke-width="1.5"></path><path d="M366.98 505.96L498.63 371.28" stroke="#132e65" stroke-width="1.5"></path><path d="M345.72 651.21L345.72 651.21" stroke="#132e65" stroke-width="1.5"></path><path d="M498.63 371.28L498.63 371.28" stroke="#132e65" stroke-width="1.5"></path><path d="M498.63 371.28L514.82 533.66" stroke="#132e65" stroke-width="1.5"></path><path d="M514.82 533.66L514.82 533.66" stroke="#132e65" stroke-width="1.5"></path><path d="M514.82 533.66L688.75 526.33" stroke="#132e65" stroke-width="1.5"></path><path d="M514.82 533.66L503.03 711.44" stroke="#132e65" stroke-width="1.5"></path><path d="M514.82 533.66L666.61 649.98" stroke="#132e65" stroke-width="1.5"></path><path d="M503.03 711.44L503.03 711.44" stroke="#132e65" stroke-width="1.5"></path><path d="M503.03 711.44L345.72 651.21" stroke="#132e65" stroke-width="1.5"></path><path d="M503.03 711.44L666.61 649.98" stroke="#132e65" stroke-width="1.5"></path><path d="M503.03 711.44L366.98 505.96" stroke="#132e65" stroke-width="1.5"></path><path d="M704.22 223.98L704.22 223.98" stroke="#132e65" stroke-width="1.5"></path><path d="M704.22 223.98L792.84 216.64" stroke="#132e65" stroke-width="1.5"></path><path d="M704.22 223.98L668.07 378.55" stroke="#132e65" stroke-width="1.5"></path><path d="M704.22 223.98L838.16 109.4" stroke="#132e65" stroke-width="1.5"></path><path d="M704.22 223.98L814.89 385.28" stroke="#132e65" stroke-width="1.5"></path><path d="M704.22 223.98L498.63 371.28" stroke="#132e65" stroke-width="1.5"></path><path d="M704.22 223.98L945.7 374.45" stroke="#132e65" stroke-width="1.5"></path><path d="M668.07 378.55L668.07 378.55" stroke="#132e65" stroke-width="1.5"></path><path d="M668.07 378.55L814.89 385.28" stroke="#132e65" stroke-width="1.5"></path><path d="M668.07 378.55L688.75 526.33" stroke="#132e65" stroke-width="1.5"></path><path d="M688.75 526.33L688.75 526.33" stroke="#132e65" stroke-width="1.5"></path><path d="M688.75 526.33L666.61 649.98" stroke="#132e65" stroke-width="1.5"></path><path d="M688.75 526.33L856.76 541.69" stroke="#132e65" stroke-width="1.5"></path><path d="M688.75 526.33L803.29 671.38" stroke="#132e65" stroke-width="1.5"></path><path d="M688.75 526.33L814.89 385.28" stroke="#132e65" stroke-width="1.5"></path><path d="M666.61 649.98L666.61 649.98" stroke="#132e65" stroke-width="1.5"></path><path d="M666.61 649.98L803.29 671.38" stroke="#132e65" stroke-width="1.5"></path><path d="M666.61 649.98L856.76 541.69" stroke="#132e65" stroke-width="1.5"></path><path d="M666.61 649.98L668.07 378.55" stroke="#132e65" stroke-width="1.5"></path><path d="M838.16 109.4L838.16 109.4" stroke="#132e65" stroke-width="1.5"></path><path d="M838.16 109.4L792.84 216.64" stroke="#132e65" stroke-width="1.5"></path><path d="M838.16 109.4L1008.09 43.15" stroke="#132e65" stroke-width="1.5"></path><path d="M792.84 216.64L792.84 216.64" stroke="#132e65" stroke-width="1.5"></path><path d="M792.84 216.64L814.89 385.28" stroke="#132e65" stroke-width="1.5"></path><path d="M792.84 216.64L668.07 378.55" stroke="#132e65" stroke-width="1.5"></path><path d="M814.89 385.28L814.89 385.28" stroke="#132e65" stroke-width="1.5"></path><path d="M814.89 385.28L945.7 374.45" stroke="#132e65" stroke-width="1.5"></path><path d="M814.89 385.28L856.76 541.69" stroke="#132e65" stroke-width="1.5"></path><path d="M856.76 541.69L856.76 541.69" stroke="#132e65" stroke-width="1.5"></path><path d="M856.76 541.69L803.29 671.38" stroke="#132e65" stroke-width="1.5"></path><path d="M856.76 541.69L955.85 644.15" stroke="#132e65" stroke-width="1.5"></path><path d="M803.29 671.38L803.29 671.38" stroke="#132e65" stroke-width="1.5"></path><path d="M803.29 671.38L955.85 644.15" stroke="#132e65" stroke-width="1.5"></path><path d="M803.29 671.38L814.89 385.28" stroke="#132e65" stroke-width="1.5"></path><path d="M940.43 -94.41L940.43 -94.41" stroke="#132e65" stroke-width="1.5"></path><path d="M940.43 -94.41L1008.09 43.15" stroke="#132e65" stroke-width="1.5"></path><path d="M940.43 -94.41L1123.21 -88.79" stroke="#132e65" stroke-width="1.5"></path><path d="M940.43 -94.41L838.16 109.4" stroke="#132e65" stroke-width="1.5"></path><path d="M940.43 -94.41L1244.88 61.19" stroke="#132e65" stroke-width="1.5"></path><path d="M1008.09 43.15L1008.09 43.15" stroke="#132e65" stroke-width="1.5"></path><path d="M1008.09 43.15L1123.21 -88.79" stroke="#132e65" stroke-width="1.5"></path><path d="M945.7 374.45L945.7 374.45" stroke="#132e65" stroke-width="1.5"></path><path d="M955.85 644.15L955.85 644.15" stroke="#132e65" stroke-width="1.5"></path><path d="M955.85 644.15L1120.87 638.97" stroke="#132e65" stroke-width="1.5"></path><path d="M955.85 644.15L1156.27 494.24" stroke="#132e65" stroke-width="1.5"></path><path d="M1123.21 -88.79L1123.21 -88.79" stroke="#132e65" stroke-width="1.5"></path><path d="M1114.71 207.6L1114.71 207.6" stroke="#132e65" stroke-width="1.5"></path><path d="M1114.71 207.6L1284.42 198.59" stroke="#132e65" stroke-width="1.5"></path><path d="M1114.71 207.6L1096.51 396.82" stroke="#132e65" stroke-width="1.5"></path><path d="M1114.71 207.6L1244.88 61.19" stroke="#132e65" stroke-width="1.5"></path><path d="M1114.71 207.6L1008.09 43.15" stroke="#132e65" stroke-width="1.5"></path><path d="M1114.71 207.6L1252.26 379.71" stroke="#132e65" stroke-width="1.5"></path><path d="M1096.51 396.82L1096.51 396.82" stroke="#132e65" stroke-width="1.5"></path><path d="M1096.51 396.82L1156.27 494.24" stroke="#132e65" stroke-width="1.5"></path><path d="M1096.51 396.82L945.7 374.45" stroke="#132e65" stroke-width="1.5"></path><path d="M1096.51 396.82L1252.26 379.71" stroke="#132e65" stroke-width="1.5"></path><path d="M1096.51 396.82L1253.02 512.72" stroke="#132e65" stroke-width="1.5"></path><path d="M1096.51 396.82L1120.87 638.97" stroke="#132e65" stroke-width="1.5"></path><path d="M1156.27 494.24L1156.27 494.24" stroke="#132e65" stroke-width="1.5"></path><path d="M1156.27 494.24L1253.02 512.72" stroke="#132e65" stroke-width="1.5"></path><path d="M1156.27 494.24L1120.87 638.97" stroke="#132e65" stroke-width="1.5"></path><path d="M1156.27 494.24L1252.26 379.71" stroke="#132e65" stroke-width="1.5"></path><path d="M1120.87 638.97L1120.87 638.97" stroke="#132e65" stroke-width="1.5"></path><path d="M1120.87 638.97L1281.54 654.89" stroke="#132e65" stroke-width="1.5"></path><path d="M1120.87 638.97L1253.02 512.72" stroke="#132e65" stroke-width="1.5"></path><path d="M1303.29 -45.47L1303.29 -45.47" stroke="#132e65" stroke-width="1.5"></path><path d="M1303.29 -45.47L1244.88 61.19" stroke="#132e65" stroke-width="1.5"></path><path d="M1303.29 -45.47L1449.41 -54.33" stroke="#132e65" stroke-width="1.5"></path><path d="M1303.29 -45.47L1123.21 -88.79" stroke="#132e65" stroke-width="1.5"></path><path d="M1303.29 -45.47L1284.42 198.59" stroke="#132e65" stroke-width="1.5"></path><path d="M1244.88 61.19L1244.88 61.19" stroke="#132e65" stroke-width="1.5"></path><path d="M1244.88 61.19L1284.42 198.59" stroke="#132e65" stroke-width="1.5"></path><path d="M1244.88 61.19L1123.21 -88.79" stroke="#132e65" stroke-width="1.5"></path><path d="M1244.88 61.19L1449.41 -54.33" stroke="#132e65" stroke-width="1.5"></path><path d="M1284.42 198.59L1284.42 198.59" stroke="#132e65" stroke-width="1.5"></path><path d="M1284.42 198.59L1450.03 220.25" stroke="#132e65" stroke-width="1.5"></path><path d="M1284.42 198.59L1252.26 379.71" stroke="#132e65" stroke-width="1.5"></path><path d="M1284.42 198.59L1399.19 385.35" stroke="#132e65" stroke-width="1.5"></path><path d="M1252.26 379.71L1252.26 379.71" stroke="#132e65" stroke-width="1.5"></path><path d="M1252.26 379.71L1253.02 512.72" stroke="#132e65" stroke-width="1.5"></path><path d="M1252.26 379.71L1399.19 385.35" stroke="#132e65" stroke-width="1.5"></path><path d="M1253.02 512.72L1253.02 512.72" stroke="#132e65" stroke-width="1.5"></path><path d="M1253.02 512.72L1281.54 654.89" stroke="#132e65" stroke-width="1.5"></path><path d="M1281.54 654.89L1281.54 654.89" stroke="#132e65" stroke-width="1.5"></path><path d="M1281.54 654.89L1396.05 673.02" stroke="#132e65" stroke-width="1.5"></path><path d="M1281.54 654.89L1411.33 557.8" stroke="#132e65" stroke-width="1.5"></path><path d="M1281.54 654.89L1156.27 494.24" stroke="#132e65" stroke-width="1.5"></path><path d="M1281.54 654.89L1252.26 379.71" stroke="#132e65" stroke-width="1.5"></path><path d="M1449.41 -54.33L1449.41 -54.33" stroke="#132e65" stroke-width="1.5"></path><path d="M1449.41 -54.33L1604.12 -57.83" stroke="#132e65" stroke-width="1.5"></path><path d="M1449.41 -54.33L1549.46 64.6" stroke="#132e65" stroke-width="1.5"></path><path d="M1450.03 220.25L1450.03 220.25" stroke="#132e65" stroke-width="1.5"></path><path d="M1450.03 220.25L1558.68 261.5" stroke="#132e65" stroke-width="1.5"></path><path d="M1399.19 385.35L1399.19 385.35" stroke="#132e65" stroke-width="1.5"></path><path d="M1399.19 385.35L1450.03 220.25" stroke="#132e65" stroke-width="1.5"></path><path d="M1399.19 385.35L1411.33 557.8" stroke="#132e65" stroke-width="1.5"></path><path d="M1399.19 385.35L1537.98 498.39" stroke="#132e65" stroke-width="1.5"></path><path d="M1399.19 385.35L1253.02 512.72" stroke="#132e65" stroke-width="1.5"></path><path d="M1411.33 557.8L1411.33 557.8" stroke="#132e65" stroke-width="1.5"></path><path d="M1411.33 557.8L1396.05 673.02" stroke="#132e65" stroke-width="1.5"></path><path d="M1411.33 557.8L1537.98 498.39" stroke="#132e65" stroke-width="1.5"></path><path d="M1411.33 557.8L1253.02 512.72" stroke="#132e65" stroke-width="1.5"></path><path d="M1411.33 557.8L1576.17 702.86" stroke="#132e65" stroke-width="1.5"></path><path d="M1396.05 673.02L1396.05 673.02" stroke="#132e65" stroke-width="1.5"></path><path d="M1396.05 673.02L1576.17 702.86" stroke="#132e65" stroke-width="1.5"></path><path d="M1396.05 673.02L1253.02 512.72" stroke="#132e65" stroke-width="1.5"></path><path d="M1396.05 673.02L1537.98 498.39" stroke="#132e65" stroke-width="1.5"></path><path d="M1396.05 673.02L1120.87 638.97" stroke="#132e65" stroke-width="1.5"></path><path d="M1604.12 -57.83L1604.12 -57.83" stroke="#132e65" stroke-width="1.5"></path><path d="M1604.12 -57.83L1549.46 64.6" stroke="#132e65" stroke-width="1.5"></path><path d="M1604.12 -57.83L1303.29 -45.47" stroke="#132e65" stroke-width="1.5"></path><path d="M1604.12 -57.83L1450.03 220.25" stroke="#132e65" stroke-width="1.5"></path><path d="M1604.12 -57.83L1558.68 261.5" stroke="#132e65" stroke-width="1.5"></path><path d="M1604.12 -57.83L1244.88 61.19" stroke="#132e65" stroke-width="1.5"></path><path d="M1549.46 64.6L1549.46 64.6" stroke="#132e65" stroke-width="1.5"></path><path d="M1549.46 64.6L1450.03 220.25" stroke="#132e65" stroke-width="1.5"></path><path d="M1549.46 64.6L1558.68 261.5" stroke="#132e65" stroke-width="1.5"></path><path d="M1558.68 261.5L1558.68 261.5" stroke="#132e65" stroke-width="1.5"></path><path d="M1558.68 261.5L1602.54 367.72" stroke="#132e65" stroke-width="1.5"></path><path d="M1558.68 261.5L1399.19 385.35" stroke="#132e65" stroke-width="1.5"></path><path d="M1558.68 261.5L1537.98 498.39" stroke="#132e65" stroke-width="1.5"></path><path d="M1602.54 367.72L1602.54 367.72" stroke="#132e65" stroke-width="1.5"></path><path d="M1602.54 367.72L1537.98 498.39" stroke="#132e65" stroke-width="1.5"></path><path d="M1602.54 367.72L1399.19 385.35" stroke="#132e65" stroke-width="1.5"></path><path d="M1602.54 367.72L1450.03 220.25" stroke="#132e65" stroke-width="1.5"></path><path d="M1602.54 367.72L1411.33 557.8" stroke="#132e65" stroke-width="1.5"></path><path d="M1537.98 498.39L1537.98 498.39" stroke="#132e65" stroke-width="1.5"></path><path d="M1576.17 702.86L1576.17 702.86" stroke="#132e65" stroke-width="1.5"></path><path d="M1576.17 702.86L1537.98 498.39" stroke="#132e65" stroke-width="1.5"></path><path d="M1576.17 702.86L1281.54 654.89" stroke="#132e65" stroke-width="1.5"></path><circle r="5" cx="-68.25" cy="371.25" fill="#132e65"></circle><circle r="5" cx="-103.27" cy="495.81" fill="#132e65"></circle><circle r="5" cx="-54.59" cy="667.44" fill="#132e65"></circle><circle r="5" cx="87.16" cy="358.1" fill="#132e65"></circle><circle r="5" cx="87.9" cy="496.54" fill="#132e65"></circle><circle r="5" cx="110.54" cy="652.46" fill="#132e65"></circle><circle r="5" cx="221.48" cy="495.4" fill="#132e65"></circle><circle r="5" cx="240.87" cy="656.34" fill="#132e65"></circle><circle r="5" cx="403.74" cy="359.11" fill="#132e65"></circle><circle r="5" cx="366.98" cy="505.96" fill="#132e65"></circle><circle r="5" cx="345.72" cy="651.21" fill="#132e65"></circle><circle r="5" cx="498.63" cy="371.28" fill="#132e65"></circle><circle r="5" cx="514.82" cy="533.66" fill="#132e65"></circle><circle r="5" cx="503.03" cy="711.44" fill="#132e65"></circle><circle r="5" cx="704.22" cy="223.98" fill="#132e65"></circle><circle r="5" cx="668.07" cy="378.55" fill="#132e65"></circle><circle r="5" cx="688.75" cy="526.33" fill="#132e65"></circle><circle r="5" cx="666.61" cy="649.98" fill="#132e65"></circle><circle r="5" cx="838.16" cy="109.4" fill="#132e65"></circle><circle r="5" cx="792.84" cy="216.64" fill="#132e65"></circle><circle r="5" cx="814.89" cy="385.28" fill="#132e65"></circle><circle r="5" cx="856.76" cy="541.69" fill="#132e65"></circle><circle r="5" cx="803.29" cy="671.38" fill="#132e65"></circle><circle r="5" cx="940.43" cy="-94.41" fill="#132e65"></circle><circle r="5" cx="1008.09" cy="43.15" fill="#132e65"></circle><circle r="5" cx="945.7" cy="374.45" fill="#132e65"></circle><circle r="5" cx="955.85" cy="644.15" fill="#132e65"></circle><circle r="5" cx="1123.21" cy="-88.79" fill="#132e65"></circle><circle r="5" cx="1114.71" cy="207.6" fill="#132e65"></circle><circle r="5" cx="1096.51" cy="396.82" fill="#132e65"></circle><circle r="5" cx="1156.27" cy="494.24" fill="#132e65"></circle><circle r="5" cx="1120.87" cy="638.97" fill="#132e65"></circle><circle r="5" cx="1303.29" cy="-45.47" fill="#132e65"></circle><circle r="5" cx="1244.88" cy="61.19" fill="#132e65"></circle><circle r="5" cx="1284.42" cy="198.59" fill="#132e65"></circle><circle r="5" cx="1252.26" cy="379.71" fill="#132e65"></circle><circle r="5" cx="1253.02" cy="512.72" fill="#132e65"></circle><circle r="5" cx="1281.54" cy="654.89" fill="#132e65"></circle><circle r="5" cx="1449.41" cy="-54.33" fill="#132e65"></circle><circle r="5" cx="1450.03" cy="220.25" fill="#132e65"></circle><circle r="5" cx="1399.19" cy="385.35" fill="#132e65"></circle><circle r="5" cx="1411.33" cy="557.8" fill="#132e65"></circle><circle r="5" cx="1396.05" cy="673.02" fill="#132e65"></circle><circle r="5" cx="1604.12" cy="-57.83" fill="#132e65"></circle><circle r="5" cx="1549.46" cy="64.6" fill="#132e65"></circle><circle r="5" cx="1558.68" cy="261.5" fill="#132e65"></circle><circle r="5" cx="1602.54" cy="367.72" fill="#132e65"></circle><circle r="5" cx="1537.98" cy="498.39" fill="#132e65"></circle><circle r="5" cx="1576.17" cy="702.86" fill="#132e65"></circle><path d="M239.66 681.03L239.66 681.03" stroke="hsl(228.5, 77.2%, 51.5%)" stroke-width="1.5"></path><path d="M239.66 681.03L89.11 708.36" stroke="hsl(228.5, 77.2%, 51.5%)" stroke-width="1.5"></path><path d="M239.66 681.03L401.52 663.16" stroke="hsl(228.5, 77.2%, 51.5%)" stroke-width="1.5"></path><path d="M239.66 681.03L212.82 520.17" stroke="hsl(228.5, 77.2%, 51.5%)" stroke-width="1.5"></path><path d="M556.4 493.9L556.4 493.9" stroke="hsl(228.5, 77.2%, 51.5%)" stroke-width="1.5"></path><path d="M556.4 493.9L655.25 391.59" stroke="hsl(228.5, 77.2%, 51.5%)" stroke-width="1.5"></path><path d="M556.4 493.9L710.4 558.49" stroke="hsl(228.5, 77.2%, 51.5%)" stroke-width="1.5"></path><path d="M556.4 493.9L533.26 665.14" stroke="hsl(228.5, 77.2%, 51.5%)" stroke-width="1.5"></path><path d="M556.4 493.9L377.68 492.18" stroke="hsl(228.5, 77.2%, 51.5%)" stroke-width="1.5"></path><path d="M702.22 689.18L702.22 689.18" stroke="hsl(228.5, 77.2%, 51.5%)" stroke-width="1.5"></path><path d="M702.22 689.18L822.48 664.89" stroke="hsl(228.5, 77.2%, 51.5%)" stroke-width="1.5"></path><path d="M702.22 689.18L710.4 558.49" stroke="hsl(228.5, 77.2%, 51.5%)" stroke-width="1.5"></path><path d="M1088.01 395.17L1088.01 395.17" stroke="hsl(228.5, 77.2%, 51.5%)" stroke-width="1.5"></path><path d="M1088.01 395.17L1110.05 500.65" stroke="hsl(228.5, 77.2%, 51.5%)" stroke-width="1.5"></path><path d="M1088.01 395.17L960.24 359.46" stroke="hsl(228.5, 77.2%, 51.5%)" stroke-width="1.5"></path><path d="M1412.14 -104.02L1412.14 -104.02" stroke="hsl(228.5, 77.2%, 51.5%)" stroke-width="1.5"></path><path d="M1412.14 -104.02L1538.7 -103.39" stroke="hsl(228.5, 77.2%, 51.5%)" stroke-width="1.5"></path><path d="M1412.14 -104.02L1246.55 -42.89" stroke="hsl(228.5, 77.2%, 51.5%)" stroke-width="1.5"></path><path d="M1412.14 -104.02L1396.25 103.82" stroke="hsl(228.5, 77.2%, 51.5%)" stroke-width="1.5"></path><path d="M1460.08 523.66L1460.08 523.66" stroke="hsl(228.5, 77.2%, 51.5%)" stroke-width="1.5"></path><path d="M1460.08 523.66L1404.67 383.3" stroke="hsl(228.5, 77.2%, 51.5%)" stroke-width="1.5"></path><path d="M1460.08 523.66L1290.57 526.42" stroke="hsl(228.5, 77.2%, 51.5%)" stroke-width="1.5"></path><path d="M1460.08 523.66L1593.75 647.41" stroke="hsl(228.5, 77.2%, 51.5%)" stroke-width="1.5"></path><path d="M1460.08 523.66L1548.59 339.1" stroke="hsl(228.5, 77.2%, 51.5%)" stroke-width="1.5"></path><path d="M1539.81 226.37L1539.81 226.37" stroke="hsl(228.5, 77.2%, 51.5%)" stroke-width="1.5"></path><path d="M1539.81 226.37L1548.59 339.1" stroke="hsl(228.5, 77.2%, 51.5%)" stroke-width="1.5"></path><path d="M1539.81 226.37L1416.74 207.13" stroke="hsl(228.5, 77.2%, 51.5%)" stroke-width="1.5"></path><path d="M1539.81 226.37L1567.92 73.73" stroke="hsl(228.5, 77.2%, 51.5%)" stroke-width="1.5"></path><path d="M1539.81 226.37L1396.25 103.82" stroke="hsl(228.5, 77.2%, 51.5%)" stroke-width="1.5"></path><path d="M1539.81 226.37L1404.67 383.3" stroke="hsl(228.5, 77.2%, 51.5%)" stroke-width="1.5"></path><path d="M1593.75 647.41L1593.75 647.41" stroke="hsl(228.5, 77.2%, 51.5%)" stroke-width="1.5"></path><path d="M1593.75 647.41L1548.59 339.1" stroke="hsl(228.5, 77.2%, 51.5%)" stroke-width="1.5"></path><path d="M1593.75 647.41L1277.39 652.46" stroke="hsl(228.5, 77.2%, 51.5%)" stroke-width="1.5"></path><path d="M-103.11 518.13L-103.11 518.13" stroke="hsl(228.5, 77.2%, 51.5%)" stroke-width="1.5"></path><path d="M-103.11 518.13L77.87 531.28" stroke="hsl(228.5, 77.2%, 51.5%)" stroke-width="1.5"></path><path d="M-103.11 518.13L-100.01 700" stroke="hsl(228.5, 77.2%, 51.5%)" stroke-width="1.5"></path><path d="M-103.11 518.13L89.11 708.36" stroke="hsl(228.5, 77.2%, 51.5%)" stroke-width="1.5"></path><path d="M-100.01 700L-100.01 700" stroke="hsl(228.5, 77.2%, 51.5%)" stroke-width="1.5"></path><path d="M-100.01 700L89.11 708.36" stroke="hsl(228.5, 77.2%, 51.5%)" stroke-width="1.5"></path><path d="M-100.01 700L77.87 531.28" stroke="hsl(228.5, 77.2%, 51.5%)" stroke-width="1.5"></path><path d="M-100.01 700L239.66 681.03" stroke="hsl(228.5, 77.2%, 51.5%)" stroke-width="1.5"></path><path d="M-100.01 700L212.82 520.17" stroke="hsl(228.5, 77.2%, 51.5%)" stroke-width="1.5"></path><path d="M77.87 531.28L77.87 531.28" stroke="hsl(228.5, 77.2%, 51.5%)" stroke-width="1.5"></path><path d="M77.87 531.28L212.82 520.17" stroke="hsl(228.5, 77.2%, 51.5%)" stroke-width="1.5"></path><path d="M77.87 531.28L89.11 708.36" stroke="hsl(228.5, 77.2%, 51.5%)" stroke-width="1.5"></path><path d="M89.11 708.36L89.11 708.36" stroke="hsl(228.5, 77.2%, 51.5%)" stroke-width="1.5"></path><path d="M89.11 708.36L212.82 520.17" stroke="hsl(228.5, 77.2%, 51.5%)" stroke-width="1.5"></path><path d="M212.82 520.17L212.82 520.17" stroke="hsl(228.5, 77.2%, 51.5%)" stroke-width="1.5"></path><path d="M212.82 520.17L377.68 492.18" stroke="hsl(228.5, 77.2%, 51.5%)" stroke-width="1.5"></path><path d="M212.82 520.17L401.52 663.16" stroke="hsl(228.5, 77.2%, 51.5%)" stroke-width="1.5"></path><path d="M212.82 520.17L-103.11 518.13" stroke="hsl(228.5, 77.2%, 51.5%)" stroke-width="1.5"></path><path d="M377.68 492.18L377.68 492.18" stroke="hsl(228.5, 77.2%, 51.5%)" stroke-width="1.5"></path><path d="M377.68 492.18L401.52 663.16" stroke="hsl(228.5, 77.2%, 51.5%)" stroke-width="1.5"></path><path d="M377.68 492.18L533.26 665.14" stroke="hsl(228.5, 77.2%, 51.5%)" stroke-width="1.5"></path><path d="M377.68 492.18L239.66 681.03" stroke="hsl(228.5, 77.2%, 51.5%)" stroke-width="1.5"></path><path d="M377.68 492.18L655.25 391.59" stroke="hsl(228.5, 77.2%, 51.5%)" stroke-width="1.5"></path><path d="M401.52 663.16L401.52 663.16" stroke="hsl(228.5, 77.2%, 51.5%)" stroke-width="1.5"></path><path d="M401.52 663.16L533.26 665.14" stroke="hsl(228.5, 77.2%, 51.5%)" stroke-width="1.5"></path><path d="M401.52 663.16L556.4 493.9" stroke="hsl(228.5, 77.2%, 51.5%)" stroke-width="1.5"></path><path d="M533.26 665.14L533.26 665.14" stroke="hsl(228.5, 77.2%, 51.5%)" stroke-width="1.5"></path><path d="M533.26 665.14L702.22 689.18" stroke="hsl(228.5, 77.2%, 51.5%)" stroke-width="1.5"></path><path d="M533.26 665.14L710.4 558.49" stroke="hsl(228.5, 77.2%, 51.5%)" stroke-width="1.5"></path><path d="M655.25 391.59L655.25 391.59" stroke="hsl(228.5, 77.2%, 51.5%)" stroke-width="1.5"></path><path d="M655.25 391.59L710.4 558.49" stroke="hsl(228.5, 77.2%, 51.5%)" stroke-width="1.5"></path><path d="M655.25 391.59L804.7 487.89" stroke="hsl(228.5, 77.2%, 51.5%)" stroke-width="1.5"></path><path d="M710.4 558.49L710.4 558.49" stroke="hsl(228.5, 77.2%, 51.5%)" stroke-width="1.5"></path><path d="M710.4 558.49L804.7 487.89" stroke="hsl(228.5, 77.2%, 51.5%)" stroke-width="1.5"></path><path d="M835.46 406.92L835.46 406.92" stroke="hsl(228.5, 77.2%, 51.5%)" stroke-width="1.5"></path><path d="M835.46 406.92L804.7 487.89" stroke="hsl(228.5, 77.2%, 51.5%)" stroke-width="1.5"></path><path d="M835.46 406.92L960.24 359.46" stroke="hsl(228.5, 77.2%, 51.5%)" stroke-width="1.5"></path><path d="M835.46 406.92L954.4 523.58" stroke="hsl(228.5, 77.2%, 51.5%)" stroke-width="1.5"></path><path d="M804.7 487.89L804.7 487.89" stroke="hsl(228.5, 77.2%, 51.5%)" stroke-width="1.5"></path><path d="M804.7 487.89L954.4 523.58" stroke="hsl(228.5, 77.2%, 51.5%)" stroke-width="1.5"></path><path d="M822.48 664.89L822.48 664.89" stroke="hsl(228.5, 77.2%, 51.5%)" stroke-width="1.5"></path><path d="M960.24 359.46L960.24 359.46" stroke="hsl(228.5, 77.2%, 51.5%)" stroke-width="1.5"></path><path d="M960.24 359.46L954.4 523.58" stroke="hsl(228.5, 77.2%, 51.5%)" stroke-width="1.5"></path><path d="M954.4 523.58L954.4 523.58" stroke="hsl(228.5, 77.2%, 51.5%)" stroke-width="1.5"></path><path d="M954.4 523.58L1003.08 640.89" stroke="hsl(228.5, 77.2%, 51.5%)" stroke-width="1.5"></path><path d="M954.4 523.58L1110.05 500.65" stroke="hsl(228.5, 77.2%, 51.5%)" stroke-width="1.5"></path><path d="M1003.08 640.89L1003.08 640.89" stroke="hsl(228.5, 77.2%, 51.5%)" stroke-width="1.5"></path><path d="M1003.08 640.89L1110.05 500.65" stroke="hsl(228.5, 77.2%, 51.5%)" stroke-width="1.5"></path><path d="M1003.08 640.89L822.48 664.89" stroke="hsl(228.5, 77.2%, 51.5%)" stroke-width="1.5"></path><path d="M1146.5 239.46L1146.5 239.46" stroke="hsl(228.5, 77.2%, 51.5%)" stroke-width="1.5"></path><path d="M1146.5 239.46L1263.73 190.75" stroke="hsl(228.5, 77.2%, 51.5%)" stroke-width="1.5"></path><path d="M1146.5 239.46L1088.01 395.17" stroke="hsl(228.5, 77.2%, 51.5%)" stroke-width="1.5"></path><path d="M1110.05 500.65L1110.05 500.65" stroke="hsl(228.5, 77.2%, 51.5%)" stroke-width="1.5"></path><path d="M1246.55 -42.89L1246.55 -42.89" stroke="hsl(228.5, 77.2%, 51.5%)" stroke-width="1.5"></path><path d="M1246.55 -42.89L1396.25 103.82" stroke="hsl(228.5, 77.2%, 51.5%)" stroke-width="1.5"></path><path d="M1246.55 -42.89L1263.73 190.75" stroke="hsl(228.5, 77.2%, 51.5%)" stroke-width="1.5"></path><path d="M1246.55 -42.89L1538.7 -103.39" stroke="hsl(228.5, 77.2%, 51.5%)" stroke-width="1.5"></path><path d="M1263.73 190.75L1263.73 190.75" stroke="hsl(228.5, 77.2%, 51.5%)" stroke-width="1.5"></path><path d="M1272.55 386.83L1272.55 386.83" stroke="hsl(228.5, 77.2%, 51.5%)" stroke-width="1.5"></path><path d="M1272.55 386.83L1404.67 383.3" stroke="hsl(228.5, 77.2%, 51.5%)" stroke-width="1.5"></path><path d="M1272.55 386.83L1290.57 526.42" stroke="hsl(228.5, 77.2%, 51.5%)" stroke-width="1.5"></path><path d="M1272.55 386.83L1088.01 395.17" stroke="hsl(228.5, 77.2%, 51.5%)" stroke-width="1.5"></path><path d="M1272.55 386.83L1146.5 239.46" stroke="hsl(228.5, 77.2%, 51.5%)" stroke-width="1.5"></path><path d="M1290.57 526.42L1290.57 526.42" stroke="hsl(228.5, 77.2%, 51.5%)" stroke-width="1.5"></path><path d="M1290.57 526.42L1277.39 652.46" stroke="hsl(228.5, 77.2%, 51.5%)" stroke-width="1.5"></path><path d="M1277.39 652.46L1277.39 652.46" stroke="hsl(228.5, 77.2%, 51.5%)" stroke-width="1.5"></path><path d="M1277.39 652.46L1460.08 523.66" stroke="hsl(228.5, 77.2%, 51.5%)" stroke-width="1.5"></path><path d="M1277.39 652.46L1110.05 500.65" stroke="hsl(228.5, 77.2%, 51.5%)" stroke-width="1.5"></path><path d="M1277.39 652.46L1272.55 386.83" stroke="hsl(228.5, 77.2%, 51.5%)" stroke-width="1.5"></path><path d="M1277.39 652.46L1003.08 640.89" stroke="hsl(228.5, 77.2%, 51.5%)" stroke-width="1.5"></path><path d="M1396.25 103.82L1396.25 103.82" stroke="hsl(228.5, 77.2%, 51.5%)" stroke-width="1.5"></path><path d="M1396.25 103.82L1416.74 207.13" stroke="hsl(228.5, 77.2%, 51.5%)" stroke-width="1.5"></path><path d="M1396.25 103.82L1263.73 190.75" stroke="hsl(228.5, 77.2%, 51.5%)" stroke-width="1.5"></path><path d="M1396.25 103.82L1567.92 73.73" stroke="hsl(228.5, 77.2%, 51.5%)" stroke-width="1.5"></path><path d="M1416.74 207.13L1416.74 207.13" stroke="hsl(228.5, 77.2%, 51.5%)" stroke-width="1.5"></path><path d="M1416.74 207.13L1263.73 190.75" stroke="hsl(228.5, 77.2%, 51.5%)" stroke-width="1.5"></path><path d="M1404.67 383.3L1404.67 383.3" stroke="hsl(228.5, 77.2%, 51.5%)" stroke-width="1.5"></path><path d="M1404.67 383.3L1548.59 339.1" stroke="hsl(228.5, 77.2%, 51.5%)" stroke-width="1.5"></path><path d="M1404.67 383.3L1416.74 207.13" stroke="hsl(228.5, 77.2%, 51.5%)" stroke-width="1.5"></path><path d="M1404.67 383.3L1290.57 526.42" stroke="hsl(228.5, 77.2%, 51.5%)" stroke-width="1.5"></path><path d="M1538.7 -103.39L1538.7 -103.39" stroke="hsl(228.5, 77.2%, 51.5%)" stroke-width="1.5"></path><path d="M1538.7 -103.39L1567.92 73.73" stroke="hsl(228.5, 77.2%, 51.5%)" stroke-width="1.5"></path><path d="M1538.7 -103.39L1396.25 103.82" stroke="hsl(228.5, 77.2%, 51.5%)" stroke-width="1.5"></path><path d="M1538.7 -103.39L1539.81 226.37" stroke="hsl(228.5, 77.2%, 51.5%)" stroke-width="1.5"></path><path d="M1567.92 73.73L1567.92 73.73" stroke="hsl(228.5, 77.2%, 51.5%)" stroke-width="1.5"></path><path d="M1567.92 73.73L1416.74 207.13" stroke="hsl(228.5, 77.2%, 51.5%)" stroke-width="1.5"></path><path d="M1567.92 73.73L1412.14 -104.02" stroke="hsl(228.5, 77.2%, 51.5%)" stroke-width="1.5"></path><path d="M1567.92 73.73L1548.59 339.1" stroke="hsl(228.5, 77.2%, 51.5%)" stroke-width="1.5"></path><path d="M1548.59 339.1L1548.59 339.1" stroke="hsl(228.5, 77.2%, 51.5%)" stroke-width="1.5"></path><path d="M1548.59 339.1L1416.74 207.13" stroke="hsl(228.5, 77.2%, 51.5%)" stroke-width="1.5"></path><circle r="25" cx="239.66" cy="681.03" fill="url(&quot;#SvgjsRadialGradient1011&quot;)"></circle><circle r="25" cx="556.4" cy="493.9" fill="url(&quot;#SvgjsRadialGradient1011&quot;)"></circle><circle r="25" cx="702.22" cy="689.18" fill="url(&quot;#SvgjsRadialGradient1011&quot;)"></circle><circle r="25" cx="1088.01" cy="395.17" fill="url(&quot;#SvgjsRadialGradient1011&quot;)"></circle><circle r="25" cx="1412.14" cy="-104.02" fill="url(&quot;#SvgjsRadialGradient1011&quot;)"></circle><circle r="25" cx="1460.08" cy="523.66" fill="url(&quot;#SvgjsRadialGradient1011&quot;)"></circle><circle r="25" cx="1539.81" cy="226.37" fill="url(&quot;#SvgjsRadialGradient1011&quot;)"></circle><circle r="25" cx="1593.75" cy="647.41" fill="url(&quot;#SvgjsRadialGradient1011&quot;)"></circle><circle r="5" cx="-103.11" cy="518.13" fill="#8b9ad9"></circle><circle r="5" cx="-100.01" cy="700" fill="#8b9ad9"></circle><circle r="5" cx="77.87" cy="531.28" fill="#8b9ad9"></circle><circle r="5" cx="89.11" cy="708.36" fill="#8b9ad9"></circle><circle r="5" cx="212.82" cy="520.17" fill="#8b9ad9"></circle><circle r="5" cx="377.68" cy="492.18" fill="#8b9ad9"></circle><circle r="5" cx="401.52" cy="663.16" fill="#8b9ad9"></circle><circle r="5" cx="533.26" cy="665.14" fill="#8b9ad9"></circle><circle r="5" cx="655.25" cy="391.59" fill="#8b9ad9"></circle><circle r="5" cx="710.4" cy="558.49" fill="#8b9ad9"></circle><circle r="5" cx="835.46" cy="406.92" fill="#8b9ad9"></circle><circle r="5" cx="804.7" cy="487.89" fill="#8b9ad9"></circle><circle r="5" cx="822.48" cy="664.89" fill="#8b9ad9"></circle><circle r="5" cx="960.24" cy="359.46" fill="#8b9ad9"></circle><circle r="5" cx="954.4" cy="523.58" fill="#8b9ad9"></circle><circle r="5" cx="1003.08" cy="640.89" fill="#8b9ad9"></circle><circle r="5" cx="1146.5" cy="239.46" fill="#8b9ad9"></circle><circle r="5" cx="1110.05" cy="500.65" fill="#8b9ad9"></circle><circle r="5" cx="1246.55" cy="-42.89" fill="#8b9ad9"></circle><circle r="5" cx="1263.73" cy="190.75" fill="#8b9ad9"></circle><circle r="5" cx="1272.55" cy="386.83" fill="#8b9ad9"></circle><circle r="5" cx="1290.57" cy="526.42" fill="#8b9ad9"></circle><circle r="5" cx="1277.39" cy="652.46" fill="#8b9ad9"></circle><circle r="5" cx="1396.25" cy="103.82" fill="#8b9ad9"></circle><circle r="5" cx="1416.74" cy="207.13" fill="#8b9ad9"></circle><circle r="5" cx="1404.67" cy="383.3" fill="#8b9ad9"></circle><circle r="5" cx="1538.7" cy="-103.39" fill="#8b9ad9"></circle><circle r="5" cx="1567.92" cy="73.73" fill="#8b9ad9"></circle><circle r="5" cx="1548.59" cy="339.1" fill="#8b9ad9"></circle></g><defs><mask id="SvgjsMask1010"><rect width="1440" height="560" fill="#ffffff"></rect></mask><radialGradient id="SvgjsRadialGradient1011"><stop stop-color="#ffffff" offset="0.1"></stop><stop stop-color="#1735b3" offset="0.2"></stop><stop stop-color="rgba(23, 53, 179, 0)" offset="1"></stop></radialGradient></defs></svg>